<mxfile host="app.diagrams.net" modified="2022-02-02T09:28:14.721Z" agent="5.0 (Windows NT 10.0; Win64; x64) AppleWebKit/537.36 (KHTML, like Gecko) Chrome/97.0.4692.99 Safari/537.36" etag="h4ZD3H8jOAwaps07YqBu" version="16.1.0" type="github">
  <diagram id="C5RBs43oDa-KdzZeNtuy" name="Page-1">
    <mxGraphModel dx="1221" dy="644" grid="1" gridSize="10" guides="1" tooltips="1" connect="1" arrows="1" fold="1" page="1" pageScale="1" pageWidth="827" pageHeight="1169" math="0" shadow="0">
      <root>
        <mxCell id="WIyWlLk6GJQsqaUBKTNV-0" />
        <mxCell id="WIyWlLk6GJQsqaUBKTNV-1" parent="WIyWlLk6GJQsqaUBKTNV-0" />
        <mxCell id="8sXlvl7CyBa9HOX1biKT-35" style="edgeStyle=elbowEdgeStyle;rounded=0;orthogonalLoop=1;jettySize=auto;html=1;exitX=0.5;exitY=0;exitDx=0;exitDy=0;dashed=1;" edge="1" parent="WIyWlLk6GJQsqaUBKTNV-1" source="8sXlvl7CyBa9HOX1biKT-23">
          <mxGeometry relative="1" as="geometry">
            <mxPoint x="770" y="201" as="targetPoint" />
            <Array as="points">
              <mxPoint x="670" y="221" />
            </Array>
          </mxGeometry>
        </mxCell>
        <mxCell id="8sXlvl7CyBa9HOX1biKT-38" style="edgeStyle=elbowEdgeStyle;rounded=0;orthogonalLoop=1;jettySize=auto;html=1;exitX=0.5;exitY=0;exitDx=0;exitDy=0;dashed=1;" edge="1" parent="WIyWlLk6GJQsqaUBKTNV-1" source="8sXlvl7CyBa9HOX1biKT-27">
          <mxGeometry relative="1" as="geometry">
            <mxPoint x="990" y="241" as="sourcePoint" />
            <mxPoint x="770" y="201" as="targetPoint" />
            <Array as="points">
              <mxPoint x="870" y="221" />
            </Array>
          </mxGeometry>
        </mxCell>
        <mxCell id="8sXlvl7CyBa9HOX1biKT-14" value="«interface»&lt;br&gt;&lt;b&gt;Cars&lt;/b&gt;" style="html=1;" vertex="1" parent="WIyWlLk6GJQsqaUBKTNV-1">
          <mxGeometry x="710" y="81" width="120" height="50" as="geometry" />
        </mxCell>
        <mxCell id="8sXlvl7CyBa9HOX1biKT-23" value="ClassPickup" style="swimlane;fontStyle=1;align=center;verticalAlign=top;childLayout=stackLayout;horizontal=1;startSize=26;horizontalStack=0;resizeParent=1;resizeParentMax=0;resizeLast=0;collapsible=1;marginBottom=0;" vertex="1" parent="WIyWlLk6GJQsqaUBKTNV-1">
          <mxGeometry x="590" y="241" width="160" height="86" as="geometry" />
        </mxCell>
        <mxCell id="8sXlvl7CyBa9HOX1biKT-24" value="..." style="text;strokeColor=none;fillColor=none;align=left;verticalAlign=top;spacingLeft=4;spacingRight=4;overflow=hidden;rotatable=0;points=[[0,0.5],[1,0.5]];portConstraint=eastwest;" vertex="1" parent="8sXlvl7CyBa9HOX1biKT-23">
          <mxGeometry y="26" width="160" height="26" as="geometry" />
        </mxCell>
        <mxCell id="8sXlvl7CyBa9HOX1biKT-25" value="" style="line;strokeWidth=1;fillColor=none;align=left;verticalAlign=middle;spacingTop=-1;spacingLeft=3;spacingRight=3;rotatable=0;labelPosition=right;points=[];portConstraint=eastwest;" vertex="1" parent="8sXlvl7CyBa9HOX1biKT-23">
          <mxGeometry y="52" width="160" height="8" as="geometry" />
        </mxCell>
        <mxCell id="8sXlvl7CyBa9HOX1biKT-26" value="+ method Drive()" style="text;strokeColor=none;fillColor=none;align=left;verticalAlign=top;spacingLeft=4;spacingRight=4;overflow=hidden;rotatable=0;points=[[0,0.5],[1,0.5]];portConstraint=eastwest;" vertex="1" parent="8sXlvl7CyBa9HOX1biKT-23">
          <mxGeometry y="60" width="160" height="26" as="geometry" />
        </mxCell>
        <mxCell id="8sXlvl7CyBa9HOX1biKT-27" value="ClassSedan" style="swimlane;fontStyle=1;align=center;verticalAlign=top;childLayout=stackLayout;horizontal=1;startSize=26;horizontalStack=0;resizeParent=1;resizeParentMax=0;resizeLast=0;collapsible=1;marginBottom=0;" vertex="1" parent="WIyWlLk6GJQsqaUBKTNV-1">
          <mxGeometry x="790" y="241" width="160" height="86" as="geometry" />
        </mxCell>
        <mxCell id="8sXlvl7CyBa9HOX1biKT-28" value="..." style="text;strokeColor=none;fillColor=none;align=left;verticalAlign=top;spacingLeft=4;spacingRight=4;overflow=hidden;rotatable=0;points=[[0,0.5],[1,0.5]];portConstraint=eastwest;" vertex="1" parent="8sXlvl7CyBa9HOX1biKT-27">
          <mxGeometry y="26" width="160" height="26" as="geometry" />
        </mxCell>
        <mxCell id="8sXlvl7CyBa9HOX1biKT-29" value="" style="line;strokeWidth=1;fillColor=none;align=left;verticalAlign=middle;spacingTop=-1;spacingLeft=3;spacingRight=3;rotatable=0;labelPosition=right;points=[];portConstraint=eastwest;" vertex="1" parent="8sXlvl7CyBa9HOX1biKT-27">
          <mxGeometry y="52" width="160" height="8" as="geometry" />
        </mxCell>
        <mxCell id="8sXlvl7CyBa9HOX1biKT-30" value="+ method Drive()" style="text;strokeColor=none;fillColor=none;align=left;verticalAlign=top;spacingLeft=4;spacingRight=4;overflow=hidden;rotatable=0;points=[[0,0.5],[1,0.5]];portConstraint=eastwest;" vertex="1" parent="8sXlvl7CyBa9HOX1biKT-27">
          <mxGeometry y="60" width="160" height="26" as="geometry" />
        </mxCell>
        <mxCell id="8sXlvl7CyBa9HOX1biKT-50" style="edgeStyle=elbowEdgeStyle;rounded=0;orthogonalLoop=1;jettySize=auto;html=1;dashed=1;" edge="1" parent="WIyWlLk6GJQsqaUBKTNV-1" target="8sXlvl7CyBa9HOX1biKT-48">
          <mxGeometry relative="1" as="geometry">
            <mxPoint x="770" y="201" as="sourcePoint" />
          </mxGeometry>
        </mxCell>
        <mxCell id="8sXlvl7CyBa9HOX1biKT-48" value="&lt;span style=&quot;text-align: left&quot;&gt;+ method Drive()&lt;/span&gt;" style="rounded=0;whiteSpace=wrap;html=1;" vertex="1" parent="WIyWlLk6GJQsqaUBKTNV-1">
          <mxGeometry x="710" y="131" width="120" height="30" as="geometry" />
        </mxCell>
        <mxCell id="8sXlvl7CyBa9HOX1biKT-51" value="TransportationCreator" style="swimlane;fontStyle=1;align=center;verticalAlign=top;childLayout=stackLayout;horizontal=1;startSize=26;horizontalStack=0;resizeParent=1;resizeParentMax=0;resizeLast=0;collapsible=1;marginBottom=0;" vertex="1" parent="WIyWlLk6GJQsqaUBKTNV-1">
          <mxGeometry x="190" y="80" width="180" height="86" as="geometry" />
        </mxCell>
        <mxCell id="8sXlvl7CyBa9HOX1biKT-52" value="..." style="text;strokeColor=none;fillColor=none;align=left;verticalAlign=top;spacingLeft=4;spacingRight=4;overflow=hidden;rotatable=0;points=[[0,0.5],[1,0.5]];portConstraint=eastwest;" vertex="1" parent="8sXlvl7CyBa9HOX1biKT-51">
          <mxGeometry y="26" width="180" height="26" as="geometry" />
        </mxCell>
        <mxCell id="8sXlvl7CyBa9HOX1biKT-53" value="" style="line;strokeWidth=1;fillColor=none;align=left;verticalAlign=middle;spacingTop=-1;spacingLeft=3;spacingRight=3;rotatable=0;labelPosition=right;points=[];portConstraint=eastwest;" vertex="1" parent="8sXlvl7CyBa9HOX1biKT-51">
          <mxGeometry y="52" width="180" height="8" as="geometry" />
        </mxCell>
        <mxCell id="8sXlvl7CyBa9HOX1biKT-54" value="+ createTransportation(): Cars" style="text;strokeColor=none;fillColor=none;align=left;verticalAlign=top;spacingLeft=4;spacingRight=4;overflow=hidden;rotatable=0;points=[[0,0.5],[1,0.5]];portConstraint=eastwest;" vertex="1" parent="8sXlvl7CyBa9HOX1biKT-51">
          <mxGeometry y="60" width="180" height="26" as="geometry" />
        </mxCell>
        <mxCell id="8sXlvl7CyBa9HOX1biKT-63" style="edgeStyle=elbowEdgeStyle;rounded=0;orthogonalLoop=1;jettySize=auto;html=1;exitX=1;exitY=0.5;exitDx=0;exitDy=0;" edge="1" parent="WIyWlLk6GJQsqaUBKTNV-1" source="8sXlvl7CyBa9HOX1biKT-56" target="8sXlvl7CyBa9HOX1biKT-54">
          <mxGeometry relative="1" as="geometry">
            <Array as="points">
              <mxPoint x="280" y="263" />
            </Array>
          </mxGeometry>
        </mxCell>
        <mxCell id="8sXlvl7CyBa9HOX1biKT-67" value="" style="edgeStyle=elbowEdgeStyle;rounded=0;orthogonalLoop=1;jettySize=auto;html=1;dashed=1;" edge="1" parent="WIyWlLk6GJQsqaUBKTNV-1" source="8sXlvl7CyBa9HOX1biKT-55" target="8sXlvl7CyBa9HOX1biKT-66">
          <mxGeometry relative="1" as="geometry" />
        </mxCell>
        <mxCell id="8sXlvl7CyBa9HOX1biKT-55" value="CargoTransportation" style="swimlane;fontStyle=1;align=center;verticalAlign=top;childLayout=stackLayout;horizontal=1;startSize=26;horizontalStack=0;resizeParent=1;resizeParentMax=0;resizeLast=0;collapsible=1;marginBottom=0;" vertex="1" parent="WIyWlLk6GJQsqaUBKTNV-1">
          <mxGeometry x="40" y="237" width="160" height="86" as="geometry" />
        </mxCell>
        <mxCell id="8sXlvl7CyBa9HOX1biKT-56" value="..." style="text;strokeColor=none;fillColor=none;align=left;verticalAlign=top;spacingLeft=4;spacingRight=4;overflow=hidden;rotatable=0;points=[[0,0.5],[1,0.5]];portConstraint=eastwest;" vertex="1" parent="8sXlvl7CyBa9HOX1biKT-55">
          <mxGeometry y="26" width="160" height="26" as="geometry" />
        </mxCell>
        <mxCell id="8sXlvl7CyBa9HOX1biKT-57" value="" style="line;strokeWidth=1;fillColor=none;align=left;verticalAlign=middle;spacingTop=-1;spacingLeft=3;spacingRight=3;rotatable=0;labelPosition=right;points=[];portConstraint=eastwest;" vertex="1" parent="8sXlvl7CyBa9HOX1biKT-55">
          <mxGeometry y="52" width="160" height="8" as="geometry" />
        </mxCell>
        <mxCell id="8sXlvl7CyBa9HOX1biKT-58" value="+ createTransportation()" style="text;strokeColor=none;fillColor=none;align=left;verticalAlign=top;spacingLeft=4;spacingRight=4;overflow=hidden;rotatable=0;points=[[0,0.5],[1,0.5]];portConstraint=eastwest;" vertex="1" parent="8sXlvl7CyBa9HOX1biKT-55">
          <mxGeometry y="60" width="160" height="26" as="geometry" />
        </mxCell>
        <mxCell id="8sXlvl7CyBa9HOX1biKT-69" style="edgeStyle=elbowEdgeStyle;rounded=0;orthogonalLoop=1;jettySize=auto;html=1;entryX=0.5;entryY=0;entryDx=0;entryDy=0;dashed=1;" edge="1" parent="WIyWlLk6GJQsqaUBKTNV-1" source="8sXlvl7CyBa9HOX1biKT-59" target="8sXlvl7CyBa9HOX1biKT-68">
          <mxGeometry relative="1" as="geometry" />
        </mxCell>
        <mxCell id="8sXlvl7CyBa9HOX1biKT-59" value="PassengerTransportation" style="swimlane;fontStyle=1;align=center;verticalAlign=top;childLayout=stackLayout;horizontal=1;startSize=26;horizontalStack=0;resizeParent=1;resizeParentMax=0;resizeLast=0;collapsible=1;marginBottom=0;" vertex="1" parent="WIyWlLk6GJQsqaUBKTNV-1">
          <mxGeometry x="360" y="237" width="160" height="86" as="geometry" />
        </mxCell>
        <mxCell id="8sXlvl7CyBa9HOX1biKT-60" value="..." style="text;strokeColor=none;fillColor=none;align=left;verticalAlign=top;spacingLeft=4;spacingRight=4;overflow=hidden;rotatable=0;points=[[0,0.5],[1,0.5]];portConstraint=eastwest;" vertex="1" parent="8sXlvl7CyBa9HOX1biKT-59">
          <mxGeometry y="26" width="160" height="26" as="geometry" />
        </mxCell>
        <mxCell id="8sXlvl7CyBa9HOX1biKT-61" value="" style="line;strokeWidth=1;fillColor=none;align=left;verticalAlign=middle;spacingTop=-1;spacingLeft=3;spacingRight=3;rotatable=0;labelPosition=right;points=[];portConstraint=eastwest;" vertex="1" parent="8sXlvl7CyBa9HOX1biKT-59">
          <mxGeometry y="52" width="160" height="8" as="geometry" />
        </mxCell>
        <mxCell id="8sXlvl7CyBa9HOX1biKT-62" value="+ createTransportation()" style="text;strokeColor=none;fillColor=none;align=left;verticalAlign=top;spacingLeft=4;spacingRight=4;overflow=hidden;rotatable=0;points=[[0,0.5],[1,0.5]];portConstraint=eastwest;" vertex="1" parent="8sXlvl7CyBa9HOX1biKT-59">
          <mxGeometry y="60" width="160" height="26" as="geometry" />
        </mxCell>
        <mxCell id="8sXlvl7CyBa9HOX1biKT-64" style="edgeStyle=elbowEdgeStyle;rounded=0;orthogonalLoop=1;jettySize=auto;html=1;entryX=0.501;entryY=1.02;entryDx=0;entryDy=0;entryPerimeter=0;exitX=0;exitY=0.5;exitDx=0;exitDy=0;" edge="1" parent="WIyWlLk6GJQsqaUBKTNV-1" source="8sXlvl7CyBa9HOX1biKT-60" target="8sXlvl7CyBa9HOX1biKT-54">
          <mxGeometry relative="1" as="geometry">
            <Array as="points">
              <mxPoint x="280" y="263" />
            </Array>
          </mxGeometry>
        </mxCell>
        <mxCell id="8sXlvl7CyBa9HOX1biKT-65" style="edgeStyle=elbowEdgeStyle;rounded=0;orthogonalLoop=1;jettySize=auto;html=1;entryX=0;entryY=0.75;entryDx=0;entryDy=0;dashed=1;" edge="1" parent="WIyWlLk6GJQsqaUBKTNV-1" source="8sXlvl7CyBa9HOX1biKT-52" target="8sXlvl7CyBa9HOX1biKT-14">
          <mxGeometry relative="1" as="geometry" />
        </mxCell>
        <mxCell id="8sXlvl7CyBa9HOX1biKT-66" value="return new ClassPickup()" style="whiteSpace=wrap;html=1;verticalAlign=middle;fontStyle=1;startSize=26;" vertex="1" parent="WIyWlLk6GJQsqaUBKTNV-1">
          <mxGeometry x="40" y="360" width="160" height="40" as="geometry" />
        </mxCell>
        <mxCell id="8sXlvl7CyBa9HOX1biKT-68" value="return new ClassSedan()" style="whiteSpace=wrap;html=1;verticalAlign=middle;fontStyle=1;startSize=26;" vertex="1" parent="WIyWlLk6GJQsqaUBKTNV-1">
          <mxGeometry x="360" y="360" width="160" height="40" as="geometry" />
        </mxCell>
      </root>
    </mxGraphModel>
  </diagram>
</mxfile>
